<?xml version="1.0" encoding="UTF-8" standalone="no"?>
<!DOCTYPE svg PUBLIC "-//W3C//DTD SVG 1.1//EN" "http://www.w3.org/Graphics/SVG/1.1/DTD/svg11.dtd">
<svg width="100%" height="100%" viewBox="0 0 1810 645" version="1.1" xmlns="http://www.w3.org/2000/svg" xmlns:xlink="http://www.w3.org/1999/xlink" xml:space="preserve" xmlns:serif="http://www.serif.com/" style="fill-rule:evenodd;clip-rule:evenodd;stroke-linejoin:round;stroke-miterlimit:2;">
    <g transform="matrix(1,0,0,1,-760.777,-749.986)">
        <g transform="matrix(1,0,0,1,-58.6496,-529.119)">
            <g>
                <path d="M841.825,1446.69C851.225,1439.64 857.1,1441.52 859.45,1452.33C860.86,1459.38 861.8,1472.07 862.27,1490.4C863.21,1512.02 862.388,1526.36 859.803,1533.4C857.218,1540.45 851.93,1543.98 843.94,1543.98C834.54,1543.98 827.725,1537.52 823.495,1524.59C819.265,1511.67 818.795,1497.33 822.085,1481.59C825.375,1465.84 831.955,1454.21 841.825,1446.69ZM1030.06,1286.65C1039.46,1281.95 1046.28,1279.61 1050.51,1279.61C1054.74,1279.61 1064.61,1281.49 1080.12,1285.25C1095.15,1289.94 1105.5,1294.17 1111.13,1297.93C1116.78,1301.69 1119.6,1306.87 1119.6,1313.44C1119.6,1316.27 1117.83,1318.5 1114.31,1320.14C1110.78,1321.79 1104.09,1323.32 1094.21,1324.73C1060.38,1328.95 1043.45,1333.18 1043.45,1337.41C1042.99,1340.24 1048.39,1345.88 1059.67,1354.34C1067.66,1360.44 1074.01,1363.85 1078.7,1364.56C1083.4,1365.26 1092.81,1364.67 1106.9,1362.8C1126.64,1359.51 1157.43,1357.62 1199.26,1357.15C1227.93,1357.15 1246.73,1357.62 1255.66,1358.57C1264.59,1359.51 1273.99,1362.56 1283.86,1367.73C1293.26,1371.96 1299.25,1375.72 1301.84,1379.01C1304.42,1382.3 1305.71,1387.47 1305.71,1394.52C1306.65,1407.21 1301.02,1417.67 1288.8,1425.89C1276.58,1434.12 1252.37,1443.16 1216.18,1453.04C1201.61,1457.27 1183.28,1463.14 1161.19,1470.66C1151.79,1473.95 1144.51,1476.3 1139.34,1477.71C1134.16,1479.12 1129.93,1480.18 1126.64,1480.88C1123.36,1481.59 1121.36,1481.59 1120.65,1480.88C1119.95,1480.18 1119.6,1479.12 1119.6,1477.71C1119.6,1474.89 1130.29,1467.96 1151.67,1456.91C1173.06,1445.87 1191.04,1433.3 1205.61,1419.19L1228.16,1398.05L1211.25,1393.11C1199.5,1389.82 1174.94,1389 1137.57,1390.64C1100.21,1392.29 1079.17,1394.99 1074.47,1398.75C1069.31,1403.45 1066.72,1410.38 1066.72,1419.55C1066.72,1428.71 1071.42,1435.88 1080.82,1441.05C1090.22,1446.22 1094.92,1450.57 1094.92,1454.09C1094.92,1457.62 1090.45,1467.13 1081.53,1482.64C1068.37,1503.8 1063.43,1517.66 1066.72,1524.24C1067.19,1525.18 1068.13,1525.65 1069.54,1525.65C1070.95,1525.65 1075.41,1523.07 1082.93,1517.89C1088.11,1515.08 1092.45,1513.66 1095.98,1513.66C1099.5,1513.66 1105.5,1515.55 1113.95,1519.31C1127.59,1524.01 1134.4,1528.35 1134.4,1532.35C1134.4,1536.34 1127.82,1543.51 1114.66,1553.85C1101.5,1564.19 1094.92,1570.89 1094.92,1573.94C1094.92,1577 1101.62,1580.99 1115.01,1585.93C1128.41,1590.86 1136.52,1596.15 1139.34,1601.79C1140.75,1605.08 1143.57,1607.08 1147.8,1607.78C1152.03,1608.49 1160.25,1608.61 1172.47,1608.13C1191.74,1607.19 1203.73,1608.61 1208.42,1612.37C1214.54,1616.6 1215.36,1621.53 1210.89,1627.17C1206.43,1632.81 1199.03,1636.81 1188.68,1639.15C1176.46,1641.04 1164.95,1643.62 1154.14,1646.91C1143.33,1650.2 1138.16,1654.9 1138.63,1661.01C1139.1,1667.12 1144.98,1672.53 1156.26,1677.23C1167.54,1681.45 1173.17,1686.86 1173.17,1693.44C1173.17,1697.67 1169.53,1703.43 1162.25,1710.71C1154.96,1718 1146.15,1724.69 1135.81,1730.81C1129.7,1734.1 1128.06,1738.56 1130.88,1744.2C1133.69,1749.84 1139.57,1754.31 1148.5,1757.6C1171.53,1765.59 1169.18,1780.62 1141.45,1802.72C1126.88,1814.47 1119.6,1821.75 1119.6,1824.57C1119.6,1826.45 1122.41,1827.39 1128.06,1827.39C1133.69,1827.39 1140.39,1826.8 1148.15,1825.63C1155.9,1824.45 1162.6,1822.69 1168.24,1820.34C1176.23,1817.52 1188.1,1818.81 1203.84,1824.22C1219.59,1829.62 1228.63,1835.62 1230.99,1842.19C1232.87,1847.84 1231.92,1853.01 1228.16,1857.7C1224.4,1862.4 1220.41,1863.35 1216.18,1860.53C1212.89,1858.64 1205.25,1859.47 1193.27,1862.99C1181.28,1866.52 1155.2,1869.81 1115.01,1872.86C1074.83,1875.92 1046.51,1878.86 1030.06,1881.67C1018.31,1883.09 1011.38,1884.73 1009.26,1886.61C1007.15,1888.49 1005.38,1894.37 1003.98,1904.24C1002.57,1913.16 1000.92,1918.57 999.04,1920.45C997.16,1922.33 992.46,1923.27 984.94,1923.27C976.95,1923.27 971.898,1921.86 969.783,1919.04C967.668,1916.22 964.26,1906.59 959.56,1890.13C954.39,1868.52 953.098,1851.83 955.683,1840.08C958.268,1828.33 960.5,1810.24 962.38,1785.8C964.26,1752.89 967.55,1726.11 972.25,1705.42C976.95,1684.75 983.53,1663.6 991.99,1641.98C998.1,1628.35 999.04,1621.77 994.81,1622.24C988.7,1622.24 958.855,1643.15 905.275,1684.98C859.685,1722.11 833.365,1739.27 826.315,1736.44C822.555,1734.57 820.91,1728.92 821.38,1719.53C821.85,1712.48 823.613,1706.84 826.668,1702.61C829.723,1698.38 836.185,1692.5 846.055,1684.98C858.275,1676.52 884.478,1650.79 924.663,1607.78C964.848,1564.78 984.94,1541.16 984.94,1536.93C984.94,1532.23 980.71,1528.35 972.25,1525.3C963.79,1522.24 954.86,1521.42 945.46,1522.83C937,1524.24 931.478,1524.48 928.893,1523.54C926.308,1522.6 923.605,1519.54 920.785,1514.37C917.025,1504.97 917.495,1495.92 922.195,1487.23C926.895,1478.53 933.475,1474.89 941.935,1476.3C949.455,1477.24 965.67,1472.07 990.58,1460.79C1008.91,1452.8 1019.72,1447.16 1023.01,1443.87C1026.3,1440.58 1027.94,1434.94 1027.94,1426.95C1027.94,1416.61 1025.83,1410.97 1021.6,1410.03C1017.37,1409.09 1008.21,1412.14 994.105,1419.19C975.775,1429.07 959.09,1433.41 944.05,1432.24C929.01,1431.06 921.49,1425.07 921.49,1414.26C921.49,1408.62 926.66,1404.86 937,1402.98C951.57,1401.1 970.135,1396.63 992.695,1389.59C1015.25,1382.54 1027.24,1377.37 1028.65,1374.08C1031.47,1370.32 1032.88,1364.91 1032.88,1357.86C1032.88,1350.81 1031.47,1346.35 1028.65,1344.46C1025.83,1342.59 1014.55,1345.17 994.81,1352.22C971.31,1359.74 959.325,1361.38 958.855,1357.15C958.855,1355.75 960.97,1353.87 965.2,1351.52C977.89,1344.46 984.94,1339.3 986.35,1336.01C987.76,1332.71 985.645,1327.08 980.005,1319.09C972.955,1309.68 970.723,1303.11 973.308,1299.35C975.893,1295.59 983.295,1293.47 995.515,1293C1009.14,1293 1020.66,1290.88 1030.06,1286.65ZM1097.74,1602.5C1092.1,1589.34 1087.87,1582.76 1085.05,1582.76C1082.23,1582.76 1070.36,1593.21 1049.45,1614.13C1028.53,1635.04 1018.08,1649.61 1018.08,1657.84C1018.08,1666.06 1018.66,1670.17 1019.84,1670.17C1021.01,1670.17 1029.59,1666.3 1045.57,1658.54C1061.55,1650.79 1072.83,1645.85 1079.41,1643.74C1085.99,1641.62 1092.1,1637.51 1097.74,1631.4C1101.5,1627.17 1103.38,1623.64 1103.38,1620.83C1103.38,1618.01 1101.5,1611.89 1097.74,1602.5ZM1090.69,1682.16C1090.69,1674.17 1089.52,1670.17 1087.16,1670.17C1083.88,1670.17 1072.36,1677.69 1052.62,1692.74C1032.88,1707.78 1023.01,1716.47 1023.01,1718.82C1023.01,1724.46 1034.06,1721.88 1056.14,1711.07C1058.03,1710.6 1059.9,1709.89 1061.79,1708.95C1074.01,1702.84 1081.88,1698.02 1085.4,1694.5C1088.93,1690.97 1090.69,1686.86 1090.69,1682.16ZM1070.95,1743.5C1070.48,1743.03 1065.31,1744.67 1055.44,1748.43C1046.98,1751.72 1042.75,1754.78 1042.75,1757.6C1042.75,1764.17 1049.1,1762.3 1061.79,1751.95L1070.95,1743.5ZM1020.19,1759.01C1011.26,1751.02 1005.86,1747.02 1003.98,1747.02C1002.1,1747.02 999.98,1756.07 997.63,1774.16C995.28,1792.26 994.105,1808.36 994.105,1822.45C994.105,1833.27 997.395,1839.61 1003.98,1841.49C1010.56,1843.37 1021.37,1841.02 1036.4,1834.44L1059.67,1823.87L1043.45,1816.82C1035.46,1813.53 1030.77,1810.59 1029.36,1808C1027.94,1805.42 1027.94,1799.66 1029.36,1790.73C1031.24,1781.8 1031.47,1775.45 1030.06,1771.69C1028.65,1767.93 1025.36,1763.7 1020.19,1759.01Z" style="fill-rule:nonzero;stroke:black;stroke-width:1px;"/>
                <path d="M1450.94,1516.49C1451.41,1514.13 1452.12,1514.84 1453.06,1518.6C1454,1520.48 1454.7,1523.07 1455.17,1526.36C1460.82,1547.51 1470.68,1566.54 1484.79,1583.46C1491.84,1592.39 1496.07,1599.44 1497.48,1604.61C1498.88,1609.78 1498.88,1619.18 1497.48,1632.81C1496.54,1653.02 1497.24,1663.12 1499.59,1663.12C1501.94,1663.12 1510.4,1653.96 1524.97,1635.63C1539.54,1617.3 1546.83,1606.26 1546.83,1602.5C1546.83,1598.27 1548.24,1596.15 1551.06,1596.15C1553.88,1596.15 1556.34,1602.85 1558.46,1616.24C1560.57,1629.64 1561.63,1642.91 1561.63,1656.08C1561.63,1665.48 1556.34,1680.4 1545.77,1700.84C1535.19,1721.29 1523.33,1739.38 1510.16,1755.13C1497.01,1770.87 1487.13,1778.75 1480.56,1778.75C1475.38,1778.75 1466.45,1769.11 1453.77,1749.84C1444.84,1735.27 1439.78,1725.87 1438.61,1721.64C1437.43,1717.41 1438.26,1710.36 1441.08,1700.49C1445.78,1686.86 1448.24,1653.61 1448.48,1600.73C1448.71,1547.86 1449.54,1519.78 1450.94,1516.49ZM1487.61,1367.73C1489.02,1351.75 1490.42,1342.35 1491.84,1339.53C1493.25,1336.71 1496.77,1336.24 1502.41,1338.12C1512.28,1340.94 1520.39,1344.7 1526.73,1349.4C1533.08,1354.1 1537.19,1359.27 1539.07,1364.91C1541.89,1374.78 1537.89,1386.06 1527.09,1398.75C1516.28,1411.44 1503.82,1419.9 1489.72,1424.13C1484.08,1425.54 1480.91,1425.89 1480.2,1425.19C1479.5,1424.48 1479.85,1420.84 1481.26,1414.26C1483.61,1404.86 1485.73,1389.35 1487.61,1367.73ZM1699.81,1302.16C1739.29,1281.95 1766.32,1277.02 1780.88,1287.36C1795.45,1297.7 1797.1,1323.08 1785.82,1363.5L1782.3,1374.78L1830.24,1371.26C1867.84,1368.43 1898.38,1370.32 1921.88,1376.89C1945.38,1383.48 1957.13,1393.11 1957.13,1405.8C1957.13,1411.44 1951.38,1418.26 1939.86,1426.25C1928.35,1434.24 1917.89,1438.7 1908.49,1439.64C1895.8,1440.58 1872.07,1448.81 1837.29,1464.32C1828.83,1468.08 1822.72,1471.48 1818.95,1474.54C1815.19,1477.59 1813.79,1480.53 1814.73,1483.35C1816.13,1488.05 1816.84,1491.81 1816.84,1494.63C1816.84,1497.45 1821.07,1499.57 1829.53,1500.98C1838.46,1503.33 1842.57,1509.32 1841.87,1518.95C1841.16,1528.59 1835.4,1539.52 1824.6,1551.74C1813.79,1565.37 1808.38,1575.24 1808.38,1581.35C1808.38,1587.45 1813.2,1593.92 1822.83,1600.73C1832.47,1607.55 1842.69,1611.89 1853.5,1613.78C1864.78,1615.18 1872.18,1618.12 1875.71,1622.59C1879.23,1627.05 1883.35,1629.29 1888.05,1629.29C1892.75,1629.29 1895.1,1630.46 1895.1,1632.81C1895.1,1635.16 1898.62,1637.98 1905.67,1641.27C1912.72,1644.56 1916.72,1649.73 1917.65,1656.78C1918.6,1663.83 1916.01,1669 1909.9,1672.29C1903.79,1675.58 1899.8,1676.29 1897.91,1674.4C1896.04,1672.53 1881.58,1672.76 1854.56,1675.11C1827.53,1677.46 1812.14,1680.05 1808.38,1682.87C1804.15,1685.22 1801.33,1718.35 1799.92,1782.27C1798.98,1836.32 1796.63,1872.51 1792.87,1890.84C1789.11,1909.17 1781.83,1919.75 1771.02,1922.57C1763.03,1923.98 1756.21,1922.1 1750.57,1916.92C1747.28,1913.63 1745.28,1905.88 1744.58,1893.66C1743.87,1881.44 1743.76,1854.41 1744.23,1812.59C1744.69,1769.35 1744.69,1742.56 1744.23,1732.22C1743.76,1721.88 1741.64,1716.7 1737.88,1716.7C1730.36,1716.7 1715.09,1719.53 1692.06,1725.16C1669.03,1730.81 1654.92,1735.27 1649.76,1738.56C1644.59,1741.85 1638.94,1743.03 1632.84,1742.09C1626.73,1741.14 1622.03,1738.33 1618.74,1733.62C1615.91,1730.34 1614.51,1721.17 1614.51,1706.13C1614.51,1692.97 1616.74,1684.16 1621.2,1679.69C1625.67,1675.23 1634.25,1673 1646.93,1673C1656.81,1673 1664.09,1671.12 1668.79,1667.36C1675.84,1661.72 1689.47,1646.2 1709.68,1620.83C1729.89,1595.44 1740,1581.11 1740,1577.82C1740,1573.59 1731.54,1571.48 1714.62,1571.48C1697.69,1571.48 1685.94,1569.12 1679.37,1564.42C1675.13,1561.61 1671.85,1560.31 1669.5,1560.55C1667.14,1560.78 1663.86,1563.02 1659.62,1567.25C1654.45,1573.83 1647.4,1579.47 1638.48,1584.16C1629.55,1588.87 1621.56,1591.22 1614.51,1591.22C1604.16,1591.22 1594.41,1587.69 1585.25,1580.64C1576.08,1573.59 1569.03,1565.13 1564.1,1555.26C1559.16,1545.39 1556.69,1535.29 1556.69,1524.94C1556.69,1514.61 1560.22,1506.14 1567.27,1499.57C1578.08,1489.23 1593.94,1477.12 1614.86,1463.26C1635.77,1449.39 1655.16,1438 1673.02,1429.07C1690.88,1420.13 1702.28,1413.32 1707.21,1408.62C1712.15,1403.92 1718.85,1393.82 1727.31,1378.31C1743.29,1348.69 1748.92,1331.31 1744.23,1326.13C1744.23,1325.19 1743.76,1324.73 1742.82,1324.73C1740.93,1324.73 1733.65,1328.95 1720.96,1337.41C1693.7,1354.81 1670.9,1353.87 1652.58,1334.6C1641.77,1323.79 1638.48,1316.74 1642.7,1313.44C1644.59,1312.51 1648.11,1313.44 1653.28,1316.27C1658.92,1320.03 1674.43,1315.33 1699.81,1302.16ZM1842.22,1412.85C1835.17,1413.32 1821.78,1417.08 1802.04,1424.13C1781.83,1431.18 1767.26,1437.53 1758.33,1443.16C1749.39,1448.81 1742.35,1455.97 1737.17,1464.67C1732.01,1473.36 1724.84,1484.29 1715.67,1497.45C1706.51,1510.61 1701.92,1519.07 1701.92,1522.83C1702.87,1526.59 1706.74,1528.24 1713.56,1527.77C1720.37,1527.3 1728.01,1525.06 1736.47,1521.07C1744.93,1517.07 1749.87,1512.49 1751.28,1507.32C1752.68,1503.56 1751.75,1496.28 1748.45,1485.46C1745.63,1476.54 1745.99,1469.95 1749.51,1465.73C1753.04,1461.5 1758.8,1460.56 1766.79,1462.9C1780.41,1467.13 1789.82,1468.55 1794.99,1467.13C1800.15,1465.73 1809.09,1459.38 1821.78,1448.1C1839.63,1433.06 1849.15,1423.31 1850.33,1418.84C1851.5,1414.38 1848.8,1412.38 1842.22,1412.85ZM1813.32,1618.01C1813.32,1613.31 1812.02,1610.6 1809.44,1609.9C1806.85,1609.19 1804.38,1610.25 1802.04,1613.07C1798.75,1616.36 1797.45,1619.18 1798.16,1621.53C1798.86,1623.88 1801.33,1625.06 1805.56,1625.06C1807.44,1625.06 1809.2,1624.23 1810.85,1622.59C1812.49,1620.94 1813.32,1619.41 1813.32,1618.01Z" style="fill-rule:nonzero;stroke:black;stroke-width:1px;"/>
                <path d="M2358.28,1383.24C2362.98,1387.47 2379.9,1392.17 2409.04,1397.34C2450.4,1404.86 2470.38,1414.5 2468.97,1426.25C2468.97,1432.83 2460.74,1438.46 2444.29,1443.16C2430.66,1446.92 2421.03,1450.92 2415.39,1455.15C2411.16,1458.91 2404.34,1470.54 2394.94,1490.05C2385.54,1509.55 2381.66,1520.13 2383.31,1521.77C2384.95,1523.42 2397.64,1519.66 2421.38,1510.49C2445.11,1501.33 2470.61,1494.87 2497.87,1491.11C2517.61,1488.29 2530.89,1487.11 2537.7,1487.58C2544.52,1488.05 2556.62,1491.58 2574.01,1498.15C2597.51,1506.62 2612.32,1515.08 2618.43,1523.54C2628.76,1536.23 2631.23,1560.55 2625.83,1596.5C2620.42,1632.46 2608.55,1671.59 2590.22,1713.88C2580.36,1735.04 2575.42,1746.79 2575.42,1749.13C2575.42,1752.89 2569.43,1766.17 2557.44,1788.97C2545.46,1811.76 2537.59,1825.28 2533.83,1829.51C2528.66,1835.62 2524.19,1838.67 2520.43,1838.67C2516.67,1838.67 2503.04,1824.81 2479.54,1797.08C2464.97,1779.68 2454.87,1768.64 2449.22,1763.94C2443.59,1759.24 2438.65,1757.6 2434.42,1759.01C2425.49,1761.83 2419.14,1766.06 2415.39,1771.69C2411.62,1777.34 2408.57,1787.91 2406.22,1803.42C2402.93,1823.16 2398.23,1835.62 2392.12,1840.79C2387.89,1844.55 2384.72,1846.66 2382.6,1847.13C2380.49,1847.6 2376.61,1845.72 2370.97,1841.49C2362.51,1836.32 2358.28,1828.21 2358.28,1817.17C2358.28,1806.12 2356.87,1799.66 2354.05,1797.78C2351.23,1795.9 2341.83,1796.96 2325.85,1800.95C2309.87,1804.95 2292.72,1806.48 2274.39,1805.54L2246.18,1803.42L2230.68,1770.99C2224.1,1757.36 2219.98,1746.67 2218.34,1738.91C2216.69,1731.16 2216.34,1719.53 2217.28,1704.02C2217.75,1680.05 2219.39,1666.41 2222.22,1663.12C2224.1,1661.72 2227.27,1663.71 2231.73,1669.12C2236.2,1674.52 2241.25,1682.63 2246.89,1693.44C2252.53,1704.25 2257.47,1716.24 2261.7,1729.39C2266.87,1742.09 2272.74,1752.07 2279.32,1759.36C2285.9,1766.64 2292.48,1770.29 2299.06,1770.29C2303.29,1770.29 2305.41,1768.4 2305.41,1764.64C2305.41,1760.88 2312.69,1751.95 2327.26,1737.86C2350.29,1715.3 2355.93,1702.13 2344.18,1698.38C2339.95,1697.43 2333.14,1697.9 2323.74,1699.79C2315.74,1702.13 2310.34,1703.19 2307.52,1702.96C2304.7,1702.72 2302.35,1700.96 2300.47,1697.67C2290.6,1683.1 2293.89,1672.53 2310.34,1665.94L2325.14,1661.01L2311.75,1642.68C2303.76,1629.99 2298.83,1619.65 2296.95,1611.66C2295.07,1603.67 2291.78,1596.86 2287.08,1591.22C2281.91,1585.11 2280.38,1579.23 2282.49,1573.59C2284.61,1567.95 2289.89,1564.42 2298.36,1563.02C2303.99,1562.55 2308.22,1560.66 2311.05,1557.38C2313.87,1554.09 2317.16,1548.21 2320.91,1539.75C2327.49,1522.36 2330.32,1510.61 2329.38,1504.5C2328.43,1498.39 2323.74,1495.34 2315.28,1495.34C2305.41,1495.34 2297.18,1490.16 2290.6,1479.83C2284.02,1469.49 2280.73,1460.79 2280.73,1453.74C2280.73,1448.57 2281.91,1445.52 2284.26,1444.58C2286.61,1443.63 2291.54,1443.16 2299.06,1443.16C2332.9,1443.16 2341.6,1428.83 2325.14,1400.16C2318.57,1389.82 2316.92,1381.36 2320.21,1374.78C2323.5,1368.2 2325.85,1364.91 2327.26,1364.91C2328.67,1364.91 2333.14,1367.14 2340.66,1371.61C2348.18,1376.07 2354.05,1379.95 2358.28,1383.24ZM2545.11,1532.7C2541.35,1530.82 2527.95,1529.88 2504.92,1529.88C2490.35,1529.88 2479.89,1530.7 2473.55,1532.35C2467.2,1533.99 2460.03,1537.63 2452.05,1543.28C2443.12,1549.38 2437.83,1554.2 2436.18,1557.73C2434.54,1561.25 2433.95,1567.48 2434.42,1576.41C2435.36,1585.81 2435.01,1592.04 2433.36,1595.09C2431.72,1598.15 2426.2,1602.26 2416.8,1607.43C2403.64,1614.48 2397.05,1619.41 2397.05,1622.24C2397.05,1623.64 2398.11,1624.7 2400.23,1625.41C2402.34,1626.11 2404.93,1626.11 2407.98,1625.41C2411.04,1624.7 2412.8,1623.41 2413.27,1621.53C2415.62,1618.71 2423.38,1619.18 2436.53,1622.94C2450.64,1627.17 2457.8,1632.58 2458.04,1639.15C2458.27,1645.74 2451.81,1655.84 2438.65,1669.47C2424.08,1684.04 2416.8,1693.44 2416.8,1697.67C2416.8,1704.25 2429.49,1714.94 2454.87,1729.75C2480.24,1744.55 2498.58,1751.95 2509.86,1751.95C2518.32,1751.95 2525.72,1742.32 2532.06,1723.05C2538.41,1703.78 2544.16,1673 2549.34,1630.69C2556.39,1571.94 2554.97,1539.28 2545.11,1532.7ZM2396.35,1586.28C2397.29,1584.4 2396.59,1583.46 2394.24,1583.46C2391.41,1582.52 2387.42,1584.63 2382.25,1589.81C2377.55,1594.51 2369.56,1598.27 2358.28,1601.09C2351.23,1602.5 2346.76,1604.38 2344.89,1606.73C2343.01,1609.08 2342.3,1613.07 2342.77,1618.71C2343.24,1627.64 2344.53,1632.93 2346.65,1634.57C2348.76,1636.22 2353.35,1634.92 2360.39,1630.69C2365.57,1628.35 2371.79,1622.59 2379.08,1613.42C2386.36,1604.26 2392.12,1595.21 2396.35,1586.28ZM2182.74,1371.26C2191.66,1383.48 2197.07,1392.52 2198.95,1398.4C2200.83,1404.27 2201.77,1415.9 2201.77,1433.3C2201.77,1452.57 2202.95,1463.73 2205.3,1466.78C2207.64,1469.84 2219.87,1474.42 2241.95,1480.53C2250.89,1482.88 2255,1486.4 2254.29,1491.11C2253.59,1495.81 2249.01,1498.86 2240.55,1500.27C2229.74,1502.15 2219.51,1506.03 2209.88,1511.9C2200.24,1517.78 2194.49,1523.54 2192.61,1529.17C2191.2,1534.82 2192.14,1544.22 2195.43,1557.38C2197.3,1565.37 2198.01,1571.94 2197.54,1577.12C2197.07,1582.29 2194.49,1589.34 2189.78,1598.27C2182.74,1613.78 2179.91,1622.35 2181.32,1624C2182.74,1625.64 2191.2,1618.01 2206.7,1601.09C2219.87,1586.05 2226.45,1579.47 2226.45,1581.35C2227.39,1582.76 2227.15,1585.58 2225.74,1589.81C2223.86,1599.67 2219.16,1610.25 2211.64,1621.53C2199.89,1638.45 2192.49,1656.19 2189.43,1674.76C2186.38,1693.32 2184.85,1725.87 2184.85,1772.4L2184.85,1857.7L2170.05,1856.3C2162.99,1855.83 2158.06,1853.83 2155.24,1850.3C2152.42,1846.78 2148.43,1837.26 2143.26,1821.75C2135.74,1798.72 2131.97,1784.15 2131.97,1778.04C2131.51,1763.94 2127.04,1759.48 2118.58,1764.64C2113.41,1767.93 2107.77,1774.28 2101.66,1783.68C2094.61,1795.43 2086.86,1800.48 2078.39,1798.84C2069.93,1797.19 2064.3,1789.56 2061.47,1775.92C2060.53,1769.82 2058.42,1763.47 2055.13,1756.89C2050.43,1749.84 2048.9,1744.32 2050.55,1740.32C2052.19,1736.33 2058.42,1729.39 2069.23,1719.53C2085.21,1704.95 2102.37,1676.87 2120.7,1635.28C2139.03,1593.68 2144.43,1570.54 2136.91,1565.84C2134.09,1563.95 2124.22,1567.01 2107.3,1575C2094.14,1581.11 2083.57,1583.81 2075.57,1583.11C2067.59,1582.4 2058.42,1578.06 2048.08,1570.07C2039.62,1563.49 2035.39,1559.26 2035.39,1557.38C2035.39,1555.5 2039.62,1553.62 2048.08,1551.74C2056.54,1549.86 2071.11,1542.92 2091.79,1530.94C2112.47,1518.95 2127.51,1508.5 2136.91,1499.57C2143.49,1493.92 2147.37,1488.52 2148.54,1483.35C2149.72,1478.18 2150.3,1465.73 2150.3,1445.99C2150.3,1419.19 2151.48,1395.93 2153.83,1376.19C2156.18,1356.45 2158.53,1346.58 2160.88,1346.58C2163.23,1346.58 2170.51,1354.81 2182.74,1371.26Z" style="fill-rule:nonzero;stroke:black;stroke-width:1px;"/>
            </g>
        </g>
    </g>
</svg>
